<svg xmlns="http://www.w3.org/2000/svg" version="1.1" xmlns:xlink="http://www.w3.org/1999/xlink" xmlns:svgjs="http://svgjs.dev/svgjs" viewBox="0 0 20.4363008221044 5.515757614301494"><g transform="matrix(1,0,0,1,5.05928152876537,1.5963005571507474)"><g><path d=" M 0.09450000000000001 0.6841799999999999 Q 0.09450000000000001 0.79002 0.135135 0.9100349999999999 Q 0.17577 1.03005 0.26271 1.13211 Q 0.34965 1.23417 0.48384000000000005 1.301265 Q 0.6180300000000001 1.36836 0.8051400000000001 1.36836 Q 0.9317700000000001 1.36836 1.034775 1.337175 Q 1.13778 1.30599 1.2199950000000002 1.25307 Q 1.30221 1.20015 1.3626900000000002 1.131165 Q 1.42317 1.06218 1.461915 0.9856349999999999 Q 1.50066 0.90909 1.5205050000000002 0.8315999999999999 Q 1.54035 0.75411 1.54035 0.6841799999999999 Q 1.54035 0.57834 1.4968800000000002 0.45832499999999987 Q 1.45341 0.3383099999999999 1.3626900000000002 0.23624999999999985 Q 1.27197 0.1341899999999998 1.1330550000000001 0.0670949999999999 Q 0.9941400000000001 -2.220446049250313e-16 0.8051400000000001 -2.220446049250313e-16 Q 0.6180300000000001 -2.220446049250313e-16 0.48384000000000005 0.06614999999999993 Q 0.34965 0.13229999999999986 0.26271 0.23341499999999993 Q 0.17577 0.33453 0.135135 0.45548999999999995 Q 0.09450000000000001 0.5764499999999999 0.09450000000000001 0.6841799999999999 M 0.27972 0.6841799999999999 Q 0.27972 0.5518799999999999 0.32035500000000006 0.4413149999999999 Q 0.36099000000000003 0.3307499999999999 0.43186500000000005 0.25136999999999987 Q 0.5027400000000001 0.17198999999999987 0.59913 0.12757499999999977 Q 0.69552 0.0831599999999999 0.8089200000000001 0.0831599999999999 Q 0.9204300000000001 0.0831599999999999 1.0196550000000002 0.12757499999999977 Q 1.11888 0.17198999999999987 1.193535 0.25136999999999987 Q 1.2681900000000002 0.3307499999999999 1.31166 0.4413149999999999 Q 1.3551300000000002 0.5518799999999999 1.3551300000000002 0.6841799999999999 Q 1.3551300000000002 0.81648 1.31166 0.9270449999999999 Q 1.2681900000000002 1.03761 1.193535 1.11699 Q 1.11888 1.19637 1.0196550000000002 1.240785 Q 0.9204300000000001 1.2852 0.8089200000000001 1.2852 Q 0.69552 1.2852 0.59913 1.240785 Q 0.5027400000000001 1.19637 0.43186500000000005 1.11699 Q 0.36099000000000003 1.03761 0.32035500000000006 0.9270449999999999 Q 0.27972 0.81648 0.27972 0.6841799999999999 M 3.08446154296875 0.7559999999999999 L 2.71024154296875 0.7559999999999999 L 2.71024154296875 0.83349 L 2.92192154296875 0.83349 L 2.92192154296875 1.17558 Q 2.8368715429687503 1.2303899999999999 2.74804154296875 1.25685 Q 2.65921154296875 1.28331 2.54581154296875 1.28331 Q 2.39650154296875 1.28331 2.28499154296875 1.2379499999999999 Q 2.17348154296875 1.19259 2.09977154296875 1.112265 Q 2.0260615429687503 1.03194 1.98920654296875 0.9213749999999999 Q 1.9523515429687501 0.8108099999999999 1.9523515429687501 0.67851 Q 1.9523515429687501 0.5480999999999999 1.98731654296875 0.43847999999999987 Q 2.02228154296875 0.32885999999999993 2.0922115429687502 0.24947999999999992 Q 2.16214154296875 0.17009999999999992 2.26325654296875 0.1266299999999998 Q 2.36437154296875 0.0831599999999999 2.49856154296875 0.0831599999999999 Q 2.58739154296875 0.0831599999999999 2.6648815429687502 0.10205999999999982 Q 2.7423715429687503 0.12095999999999996 2.8028515429687504 0.15119999999999978 Q 2.86333154296875 0.18143999999999982 2.90207654296875 0.22018499999999985 Q 2.94082154296875 0.2589299999999999 2.95216154296875 0.2986199999999999 L 3.08824154296875 0.2986199999999999 Q 3.07123154296875 0.25703999999999994 3.03059654296875 0.20506499999999983 Q 2.98996154296875 0.15308999999999995 2.9200315429687502 0.10772999999999988 Q 2.8501015429687504 0.062369999999999814 2.74709654296875 0.031184999999999796 Q 2.6440915429687504 -2.220446049250313e-16 2.50423154296875 -2.220446049250313e-16 Q 2.3435815429687503 -2.220446049250313e-16 2.2084465429687503 0.045359999999999845 Q 2.0733115429687503 0.09071999999999991 1.97503154296875 0.17576999999999998 Q 1.87675154296875 0.26081999999999983 1.82194154296875 0.38461499999999993 Q 1.76713154296875 0.5084099999999999 1.76713154296875 0.6652799999999999 Q 1.76713154296875 0.7994699999999999 1.8096565429687501 0.925155 Q 1.85218154296875 1.05084 1.94006654296875 1.150065 Q 2.0279515429687502 1.24929 2.16403154296875 1.308825 Q 2.30011154296875 1.36836 2.4891115429687503 1.36836 Q 2.6308615429687503 1.36836 2.74048154296875 1.337175 Q 2.8501015429687504 1.30599 2.92192154296875 1.26819 L 2.92192154296875 1.34568 L 3.08446154296875 1.34568 L 3.08446154296875 0.7559999999999999 M 5.237156777343751 1.10187 Q 5.044376777343751 1.28331 4.77977677734375 1.28331 Q 4.632356777343751 1.28331 4.5189567773437505 1.23228 Q 4.405556777343751 1.18125 4.32995677734375 1.0962 Q 4.254356777343751 1.01115 4.21561177734375 0.89964 Q 4.176866777343751 0.7881299999999999 4.176866777343751 0.6671699999999999 Q 4.176866777343751 0.53865 4.217501777343751 0.43186499999999994 Q 4.258136777343751 0.3250799999999998 4.331846777343751 0.24758999999999998 Q 4.405556777343751 0.17009999999999992 4.506671777343751 0.1266299999999998 Q 4.60778677734375 0.0831599999999999 4.726856777343751 0.0831599999999999 Q 4.808126777343751 0.0831599999999999 4.875221777343751 0.10205999999999982 Q 4.94231677734375 0.12095999999999996 4.994291777343751 0.15119999999999978 Q 5.04626677734375 0.18143999999999982 5.079341777343751 0.22018499999999985 Q 5.112416777343751 0.2589299999999999 5.125646777343751 0.2986199999999999 L 5.2655067773437505 0.2986199999999999 Q 5.237156777343751 0.2343599999999999 5.19274177734375 0.17954999999999988 Q 5.148326777343751 0.12473999999999985 5.082176777343751 0.08504999999999985 Q 5.01602677734375 0.045359999999999845 4.927196777343751 0.02267999999999981 Q 4.838366777343751 -2.220446049250313e-16 4.7249667773437505 -2.220446049250313e-16 Q 4.56053677734375 -2.220446049250313e-16 4.42540177734375 0.04724999999999979 Q 4.29026677734375 0.0944999999999998 4.193876777343751 0.1823849999999998 Q 4.09748677734375 0.2702699999999998 4.044566777343751 0.3940649999999999 Q 3.9916467773437505 0.5178599999999999 3.9916467773437505 0.6709499999999999 Q 3.9916467773437505 0.8032499999999999 4.034171777343751 0.928935 Q 4.07669677734375 1.05462 4.16552677734375 1.151955 Q 4.254356777343751 1.24929 4.392326777343751 1.308825 Q 4.53029677734375 1.36836 4.721186777343751 1.36836 Q 4.842146777343751 1.36836 4.9375917773437505 1.34568 Q 5.03303677734375 1.323 5.10391177734375 1.289925 Q 5.17478677734375 1.25685 5.22203677734375 1.21905 Q 5.26928677734375 1.18125 5.29385677734375 1.1529 L 5.237156777343751 1.10187 M 5.445004174804688 0.6841799999999999 Q 5.445004174804688 0.79002 5.485639174804688 0.9100349999999999 Q 5.526274174804688 1.03005 5.613214174804688 1.13211 Q 5.700154174804688 1.23417 5.834344174804688 1.301265 Q 5.968534174804688 1.36836 6.155644174804688 1.36836 Q 6.282274174804688 1.36836 6.385279174804688 1.337175 Q 6.488284174804688 1.30599 6.570499174804688 1.25307 Q 6.652714174804688 1.20015 6.713194174804688 1.131165 Q 6.773674174804688 1.06218 6.812419174804688 0.9856349999999999 Q 6.851164174804688 0.90909 6.871009174804688 0.8315999999999999 Q 6.890854174804688 0.75411 6.890854174804688 0.6841799999999999 Q 6.890854174804688 0.57834 6.847384174804688 0.45832499999999987 Q 6.803914174804688 0.3383099999999999 6.713194174804688 0.23624999999999985 Q 6.6224741748046885 0.1341899999999998 6.483559174804688 0.0670949999999999 Q 6.344644174804688 -2.220446049250313e-16 6.155644174804688 -2.220446049250313e-16 Q 5.968534174804688 -2.220446049250313e-16 5.834344174804688 0.06614999999999993 Q 5.700154174804688 0.13229999999999986 5.613214174804688 0.23341499999999993 Q 5.526274174804688 0.33453 5.485639174804688 0.45548999999999995 Q 5.445004174804688 0.5764499999999999 5.445004174804688 0.6841799999999999 M 5.630224174804688 0.6841799999999999 Q 5.630224174804688 0.5518799999999999 5.670859174804688 0.4413149999999999 Q 5.711494174804688 0.3307499999999999 5.782369174804688 0.25136999999999987 Q 5.853244174804688 0.17198999999999987 5.949634174804688 0.12757499999999977 Q 6.046024174804688 0.0831599999999999 6.159424174804688 0.0831599999999999 Q 6.2709341748046885 0.0831599999999999 6.370159174804688 0.12757499999999977 Q 6.469384174804688 0.17198999999999987 6.544039174804688 0.25136999999999987 Q 6.618694174804688 0.3307499999999999 6.662164174804688 0.4413149999999999 Q 6.705634174804688 0.5518799999999999 6.705634174804688 0.6841799999999999 Q 6.705634174804688 0.81648 6.662164174804688 0.9270449999999999 Q 6.618694174804688 1.03761 6.544039174804688 1.11699 Q 6.469384174804688 1.19637 6.370159174804688 1.240785 Q 6.2709341748046885 1.2852 6.159424174804688 1.2852 Q 6.046024174804688 1.2852 5.949634174804688 1.240785 Q 5.853244174804688 1.19637 5.782369174804688 1.11699 Q 5.711494174804688 1.03761 5.670859174804688 0.9270449999999999 Q 5.630224174804688 0.81648 5.630224174804688 0.6841799999999999 M 7.060935717773439 0.02267999999999981 L 7.614705717773439 1.34568 L 7.728105717773438 1.34568 L 8.26486571777344 0.02267999999999981 L 8.166585717773438 0.02267999999999981 L 7.726215717773439 1.11132 L 7.718655717773439 1.11132 L 7.265055717773438 0.02267999999999981 L 7.060935717773439 0.02267999999999981 M 8.567306323242189 0.02267999999999981 L 8.567306323242189 1.34568 L 9.421586323242188 1.34568 L 9.421586323242188 1.24173 L 8.739296323242188 1.24173 L 8.739296323242188 0.6879599999999999 L 9.325196323242189 0.6879599999999999 L 9.325196323242189 0.6010199999999999 L 8.739296323242188 0.6010199999999999 L 8.739296323242188 0.1266299999999998 L 9.421586323242188 0.1266299999999998 L 9.421586323242188 0.02267999999999981 L 8.567306323242189 0.02267999999999981 M 9.723966943359377 0.02267999999999981 L 9.723966943359377 1.34568 L 9.895956943359376 1.34568 L 9.895956943359376 0.76167 L 9.979116943359376 0.76167 Q 10.032036943359376 0.76167 10.067001943359376 0.7711199999999999 Q 10.101966943359376 0.78057 10.130316943359377 0.8032499999999999 Q 10.158666943359377 0.8259299999999999 10.183236943359377 0.8618399999999999 Q 10.207806943359376 0.8977499999999999 10.241826943359376 0.9506699999999999 L 10.391136943359376 1.1718 Q 10.419486943359377 1.2152699999999999 10.446891943359377 1.25118 Q 10.474296943359377 1.28709 10.506426943359376 1.312605 Q 10.538556943359376 1.33812 10.579191943359376 1.35324 Q 10.619826943359376 1.36836 10.676526943359377 1.36836 Q 10.718106943359377 1.36836 10.744566943359377 1.36458 Q 10.771026943359377 1.3608 10.797486943359377 1.34568 L 10.797486943359377 1.27575 Q 10.788036943359376 1.2776399999999999 10.778586943359377 1.278585 Q 10.769136943359376 1.27953 10.759686943359377 1.27953 Q 10.719996943359376 1.27953 10.689756943359377 1.26819 Q 10.659516943359376 1.25685 10.633056943359376 1.235115 Q 10.606596943359376 1.21338 10.582026943359377 1.1821949999999999 Q 10.557456943359377 1.1510099999999999 10.530996943359376 1.11132 Q 10.451616943359376 0.99603 10.408146943359377 0.9270449999999999 Q 10.364676943359376 0.8580599999999999 10.339161943359377 0.82026 Q 10.313646943359377 0.7824599999999999 10.297581943359376 0.76545 Q 10.281516943359376 0.7484399999999999 10.258836943359377 0.7371 L 10.239936943359377 0.7276499999999999 L 10.239936943359377 0.7200899999999999 Q 10.330656943359376 0.7144199999999999 10.395861943359376 0.6803999999999999 Q 10.461066943359377 0.64638 10.502646943359377 0.5953499999999999 Q 10.544226943359376 0.5443199999999999 10.563126943359377 0.4847849999999999 Q 10.582026943359377 0.4252499999999999 10.582026943359377 0.36854999999999993 Q 10.582026943359377 0.3175199999999998 10.562181943359377 0.25703999999999994 Q 10.542336943359377 0.19655999999999985 10.494141943359377 0.14458499999999996 Q 10.445946943359376 0.09260999999999986 10.362786943359376 0.057644999999999946 Q 10.279626943359377 0.02267999999999981 10.152996943359376 0.02267999999999981 L 9.723966943359377 0.02267999999999981 M 9.895956943359376 0.10583999999999993 L 10.086846943359376 0.10583999999999993 Q 10.158666943359377 0.10583999999999993 10.216311943359376 0.1266299999999998 Q 10.273956943359376 0.14741999999999988 10.315536943359376 0.18427499999999997 Q 10.357116943359376 0.22112999999999983 10.378851943359376 0.27215999999999996 Q 10.400586943359377 0.32318999999999987 10.400586943359377 0.38366999999999984 Q 10.400586943359377 0.43469999999999986 10.380741943359377 0.48667499999999986 Q 10.360896943359377 0.53865 10.321206943359376 0.5811749999999999 Q 10.281516943359376 0.6236999999999999 10.223871943359377 0.65016 Q 10.166226943359376 0.6766199999999999 10.090626943359377 0.6766199999999999 L 9.895956943359376 0.6766199999999999 L 9.895956943359376 0.10583999999999993 M 11.099920166015627 0.02267999999999981 L 11.099920166015627 1.34568 L 11.954200166015626 1.34568 L 11.954200166015626 1.24173 L 11.271910166015626 1.24173 L 11.271910166015626 0.6879599999999999 L 11.857810166015627 0.6879599999999999 L 11.857810166015627 0.6010199999999999 L 11.271910166015626 0.6010199999999999 L 11.271910166015626 0.1266299999999998 L 11.954200166015626 0.1266299999999998 L 11.954200166015626 0.02267999999999981 L 11.099920166015627 0.02267999999999981 M 12.275480786132814 1.34568 L 12.275480786132814 0.02267999999999981 L 12.710180786132815 0.02267999999999981 Q 12.867050786132815 0.02267999999999981 12.997460786132814 0.07276499999999997 Q 13.127870786132814 0.1228499999999999 13.221425786132814 0.2107349999999999 Q 13.314980786132814 0.2986199999999999 13.366955786132815 0.41957999999999984 Q 13.418930786132815 0.5405399999999999 13.418930786132815 0.6803999999999999 Q 13.418930786132815 0.8259299999999999 13.365065786132815 0.947835 Q 13.311200786132815 1.06974 13.217645786132815 1.1585699999999999 Q 13.124090786132815 1.2474 12.999350786132815 1.29654 Q 12.874610786132815 1.34568 12.732860786132814 1.34568 L 12.275480786132814 1.34568 M 12.447470786132815 1.2625199999999999 L 12.655370786132815 1.2625199999999999 Q 12.810350786132815 1.2625199999999999 12.919025786132815 1.210545 Q 13.027700786132815 1.1585699999999999 13.097630786132815 1.07541 Q 13.167560786132814 0.99225 13.199690786132814 0.889245 Q 13.231820786132815 0.7862399999999999 13.231820786132815 0.6841799999999999 Q 13.231820786132815 0.57078 13.194020786132814 0.4658849999999999 Q 13.156220786132815 0.3609899999999999 13.083455786132815 0.28066499999999994 Q 13.010690786132814 0.20033999999999996 12.902960786132814 0.15308999999999995 Q 12.795230786132814 0.10583999999999993 12.655370786132815 0.10583999999999993 L 12.447470786132815 0.10583999999999993 L 12.447470786132815 1.2625199999999999" fill="#212245" fill-rule="nonzero"></path></g><g><path d=" M 0.40650000000000003 1.7989064999999997 L 0.23850000000000002 2.1191564999999994 L 0.23850000000000002 2.3231564999999996 L 0.186 2.3231564999999996 L 0.186 2.1191564999999994 L 0.0165 1.7989064999999997 L 0.07575 1.7989064999999997 L 0.21225 2.0711565 L 0.34800000000000003 1.7989064999999997 L 0.40650000000000003 1.7989064999999997 M 0.5940194091796875 2.2942814999999994 Q 0.5347694091796875 2.2601564999999995 0.5006444091796876 2.1990315 Q 0.4665194091796875 2.1379064999999997 0.4665194091796875 2.0606564999999994 Q 0.4665194091796875 1.9834064999999996 0.5006444091796876 1.9222814999999995 Q 0.5347694091796875 1.8611564999999997 0.5940194091796875 1.8270314999999997 Q 0.6532694091796876 1.7929064999999995 0.7260194091796874 1.7929064999999995 Q 0.7995194091796876 1.7929064999999995 0.8587694091796876 1.8270314999999997 Q 0.9180194091796875 1.8611564999999997 0.9517694091796876 1.9222814999999995 Q 0.9855194091796875 1.9834064999999996 0.9855194091796875 2.0606564999999994 Q 0.9855194091796875 2.1379064999999997 0.9517694091796876 2.1990315 Q 0.9180194091796875 2.2601564999999995 0.8587694091796876 2.2942814999999994 Q 0.7995194091796876 2.3284065 0.7260194091796874 2.3284065 Q 0.6532694091796876 2.3284065 0.5940194091796875 2.2942814999999994 M 0.8310194091796875 2.2556564999999997 Q 0.8775194091796875 2.2286564999999996 0.9045194091796875 2.1780314999999995 Q 0.9315194091796875 2.1274064999999998 0.9315194091796875 2.0606564999999994 Q 0.9315194091796875 1.9939064999999996 0.9045194091796875 1.9436564999999997 Q 0.8775194091796875 1.8934064999999995 0.8310194091796875 1.8664064999999996 Q 0.7845194091796874 1.8394064999999995 0.7260194091796874 1.8394064999999995 Q 0.6675194091796876 1.8394064999999995 0.6210194091796875 1.8664064999999996 Q 0.5745194091796875 1.8934064999999995 0.5475194091796876 1.9436564999999997 Q 0.5205194091796875 1.9939064999999996 0.5205194091796875 2.0606564999999994 Q 0.5205194091796875 2.1274064999999998 0.5475194091796876 2.1780314999999995 Q 0.5745194091796875 2.2286564999999996 0.6210194091796875 2.2556564999999997 Q 0.6675194091796876 2.2826564999999994 0.7260194091796874 2.2826564999999994 Q 0.7845194091796874 2.2826564999999994 0.8310194091796875 2.2556564999999997 M 1.1392880859375 1.7989064999999997 L 1.1392880859375 2.1289065 Q 1.1392880859375 2.2069064999999997 1.1764130859375002 2.2444064999999997 Q 1.2135380859375 2.2819065 1.2780380859375002 2.2819065 Q 1.3425380859375 2.2819065 1.3789130859375 2.2447814999999998 Q 1.4152880859375 2.2076564999999997 1.4152880859375 2.1289065 L 1.4152880859375 1.7989064999999997 L 1.4677880859375 1.7989064999999997 L 1.4677880859375 2.1281565 Q 1.4677880859375 2.2279064999999996 1.4149130859375 2.2781564999999997 Q 1.3620380859375 2.3284065 1.2772880859375002 2.3284065 Q 1.1925380859375 2.3284065 1.1396630859375 2.2781564999999997 Q 1.0867880859375 2.2279064999999996 1.0867880859375 2.1281565 L 1.0867880859375 1.7989064999999997 L 1.1392880859375 1.7989064999999997 M 1.8712961425781252 2.3231564999999996 L 1.7415461425781251 2.1041564999999998 L 1.6447961425781252 2.1041564999999998 L 1.6447961425781252 2.3231564999999996 L 1.5922961425781252 2.3231564999999996 L 1.5922961425781252 1.7989064999999997 L 1.7497961425781252 1.7989064999999997 Q 1.8375461425781252 1.7989064999999997 1.8829211425781252 1.8409064999999996 Q 1.9282961425781253 1.8829064999999996 1.9282961425781253 1.9511564999999997 Q 1.9282961425781253 2.0081564999999997 1.8956711425781252 2.0482815 Q 1.863046142578125 2.0884064999999996 1.7992961425781253 2.1004064999999996 L 1.934296142578125 2.3231564999999996 L 1.8712961425781252 2.3231564999999996 M 1.6447961425781252 2.0614064999999995 L 1.7505461425781252 2.0614064999999995 Q 1.8120461425781251 2.0614064999999995 1.8431711425781252 2.0314064999999997 Q 1.8742961425781253 2.0014065 1.8742961425781253 1.9511564999999997 Q 1.8742961425781253 1.8994064999999996 1.8442961425781252 1.8712814999999996 Q 1.8142961425781252 1.8431564999999996 1.7497961425781252 1.8431564999999996 L 1.6447961425781252 1.8431564999999996 L 1.6447961425781252 2.0614064999999995 M 2.6422675781250002 1.7989064999999997 L 2.6422675781250002 2.3231564999999996 L 2.589767578125 2.3231564999999996 L 2.589767578125 2.0779064999999997 L 2.305517578125 2.0779064999999997 L 2.305517578125 2.3231564999999996 L 2.253017578125 2.3231564999999996 L 2.253017578125 1.7989064999999997 L 2.305517578125 1.7989064999999997 L 2.305517578125 2.0344065 L 2.589767578125 2.0344065 L 2.589767578125 1.7989064999999997 L 2.6422675781250002 1.7989064999999997 M 2.8222796630859373 1.8416564999999996 L 2.8222796630859373 2.0374064999999995 L 3.0210296630859377 2.0374064999999995 L 3.0210296630859377 2.0809064999999998 L 2.8222796630859373 2.0809064999999998 L 2.8222796630859373 2.2796564999999998 L 3.0435296630859376 2.2796564999999998 L 3.0435296630859376 2.3231564999999996 L 2.7697796630859375 2.3231564999999996 L 2.7697796630859375 1.7981564999999997 L 3.0435296630859376 1.7981564999999997 L 3.0435296630859376 1.8416564999999996 L 2.8222796630859373 1.8416564999999996 M 3.458272705078125 2.1986565 L 3.2197727050781246 2.1986565 L 3.1740227050781247 2.3231564999999996 L 3.118522705078125 2.3231564999999996 L 3.309772705078125 1.8056564999999996 L 3.369022705078125 1.8056564999999996 L 3.5595227050781246 2.3231564999999996 L 3.5040227050781247 2.3231564999999996 L 3.458272705078125 2.1986565 M 3.4425227050781246 2.1551564999999995 L 3.3390227050781247 1.8716564999999996 L 3.235522705078125 2.1551564999999995 L 3.4425227050781246 2.1551564999999995 M 3.7035058593749994 2.2804065 L 3.8917558593749995 2.2804065 L 3.8917558593749995 2.3231564999999996 L 3.6510058593749997 2.3231564999999996 L 3.6510058593749997 1.7989064999999997 L 3.7035058593749994 1.7989064999999997 L 3.7035058593749994 2.2804065 M 4.281021240234375 1.7989064999999997 L 4.281021240234375 1.8424064999999996 L 4.135521240234375 1.8424064999999996 L 4.135521240234375 2.3231564999999996 L 4.083021240234375 2.3231564999999996 L 4.083021240234375 1.8424064999999996 L 3.936771240234375 1.8424064999999996 L 3.936771240234375 1.7989064999999997 L 4.281021240234375 1.7989064999999997 M 4.761035888671875 1.7989064999999997 L 4.761035888671875 2.3231564999999996 L 4.708535888671875 2.3231564999999996 L 4.708535888671875 2.0779064999999997 L 4.424285888671875 2.0779064999999997 L 4.424285888671875 2.3231564999999996 L 4.371785888671875 2.3231564999999996 L 4.371785888671875 1.7989064999999997 L 4.424285888671875 1.7989064999999997 L 4.424285888671875 2.0344065 L 4.708535888671875 2.0344065 L 4.708535888671875 1.7989064999999997 L 4.761035888671875 1.7989064999999997 M 4.936547973632813 2.2361564999999994 L 4.858547973632813 2.4326564999999998 L 4.822547973632813 2.4326564999999998 L 4.878047973632813 2.2361564999999994 L 4.936547973632813 2.2361564999999994 M 5.585268310546876 1.7989064999999997 L 5.417268310546876 2.1191564999999994 L 5.417268310546876 2.3231564999999996 L 5.364768310546876 2.3231564999999996 L 5.364768310546876 2.1191564999999994 L 5.195268310546876 1.7989064999999997 L 5.254518310546876 1.7989064999999997 L 5.391018310546876 2.0711565 L 5.526768310546876 1.7989064999999997 L 5.585268310546876 1.7989064999999997 M 5.772787719726564 2.2942814999999994 Q 5.713537719726564 2.2601564999999995 5.679412719726564 2.1990315 Q 5.645287719726563 2.1379064999999997 5.645287719726563 2.0606564999999994 Q 5.645287719726563 1.9834064999999996 5.679412719726564 1.9222814999999995 Q 5.713537719726564 1.8611564999999997 5.772787719726564 1.8270314999999997 Q 5.832037719726564 1.7929064999999995 5.9047877197265635 1.7929064999999995 Q 5.978287719726564 1.7929064999999995 6.037537719726564 1.8270314999999997 Q 6.096787719726564 1.8611564999999997 6.130537719726564 1.9222814999999995 Q 6.1642877197265635 1.9834064999999996 6.1642877197265635 2.0606564999999994 Q 6.1642877197265635 2.1379064999999997 6.130537719726564 2.1990315 Q 6.096787719726564 2.2601564999999995 6.037537719726564 2.2942814999999994 Q 5.978287719726564 2.3284065 5.9047877197265635 2.3284065 Q 5.832037719726564 2.3284065 5.772787719726564 2.2942814999999994 M 6.009787719726564 2.2556564999999997 Q 6.056287719726564 2.2286564999999996 6.083287719726564 2.1780314999999995 Q 6.110287719726564 2.1274064999999998 6.110287719726564 2.0606564999999994 Q 6.110287719726564 1.9939064999999996 6.083287719726564 1.9436564999999997 Q 6.056287719726564 1.8934064999999995 6.009787719726564 1.8664064999999996 Q 5.963287719726564 1.8394064999999995 5.9047877197265635 1.8394064999999995 Q 5.846287719726564 1.8394064999999995 5.799787719726564 1.8664064999999996 Q 5.753287719726564 1.8934064999999995 5.726287719726564 1.9436564999999997 Q 5.699287719726564 1.9939064999999996 5.699287719726564 2.0606564999999994 Q 5.699287719726564 2.1274064999999998 5.726287719726564 2.1780314999999995 Q 5.753287719726564 2.2286564999999996 5.799787719726564 2.2556564999999997 Q 5.846287719726564 2.2826564999999994 5.9047877197265635 2.2826564999999994 Q 5.963287719726564 2.2826564999999994 6.009787719726564 2.2556564999999997 M 6.318056396484376 1.7989064999999997 L 6.318056396484376 2.1289065 Q 6.318056396484376 2.2069064999999997 6.355181396484377 2.2444064999999997 Q 6.3923063964843765 2.2819065 6.456806396484376 2.2819065 Q 6.521306396484377 2.2819065 6.5576813964843765 2.2447814999999998 Q 6.594056396484376 2.2076564999999997 6.594056396484376 2.1289065 L 6.594056396484376 1.7989064999999997 L 6.646556396484376 1.7989064999999997 L 6.646556396484376 2.1281565 Q 6.646556396484376 2.2279064999999996 6.593681396484377 2.2781564999999997 Q 6.540806396484377 2.3284065 6.456056396484376 2.3284065 Q 6.371306396484377 2.3284065 6.318431396484376 2.2781564999999997 Q 6.265556396484377 2.2279064999999996 6.265556396484377 2.1281565 L 6.265556396484377 1.7989064999999997 L 6.318056396484376 1.7989064999999997 M 7.050064453125002 2.3231564999999996 L 6.920314453125002 2.1041564999999998 L 6.823564453125002 2.1041564999999998 L 6.823564453125002 2.3231564999999996 L 6.7710644531250015 2.3231564999999996 L 6.7710644531250015 1.7989064999999997 L 6.928564453125002 1.7989064999999997 Q 7.016314453125002 1.7989064999999997 7.061689453125002 1.8409064999999996 Q 7.107064453125002 1.8829064999999996 7.107064453125002 1.9511564999999997 Q 7.107064453125002 2.0081564999999997 7.074439453125002 2.0482815 Q 7.041814453125002 2.0884064999999996 6.978064453125002 2.1004064999999996 L 7.113064453125002 2.3231564999999996 L 7.050064453125002 2.3231564999999996 M 6.823564453125002 2.0614064999999995 L 6.929314453125002 2.0614064999999995 Q 6.990814453125002 2.0614064999999995 7.021939453125002 2.0314064999999997 Q 7.0530644531250015 2.0014065 7.0530644531250015 1.9511564999999997 Q 7.0530644531250015 1.8994064999999996 7.023064453125002 1.8712814999999996 Q 6.993064453125002 1.8431564999999996 6.928564453125002 1.8431564999999996 L 6.823564453125002 1.8431564999999996 L 6.823564453125002 2.0614064999999995 M 7.722785888671877 2.0584065 Q 7.6785358886718775 2.0996564999999996 7.590035888671878 2.0996564999999996 L 7.484285888671877 2.0996564999999996 L 7.484285888671877 2.3231564999999996 L 7.431785888671877 2.3231564999999996 L 7.431785888671877 1.7989064999999997 L 7.590035888671878 1.7989064999999997 Q 7.6777858886718775 1.7989064999999997 7.722410888671877 1.8401564999999995 Q 7.767035888671877 1.8814064999999995 7.767035888671877 1.9496564999999997 Q 7.767035888671877 2.0171564999999996 7.722785888671877 2.0584065 M 7.713035888671877 1.9496564999999997 Q 7.713035888671877 1.8971564999999997 7.683785888671878 1.8701564999999996 Q 7.6545358886718775 1.8431564999999996 7.590035888671878 1.8431564999999996 L 7.484285888671877 1.8431564999999996 L 7.484285888671877 2.0546564999999997 L 7.590035888671878 2.0546564999999997 Q 7.713035888671877 2.0546564999999997 7.713035888671877 1.9496564999999997 M 7.914805297851565 2.2804065 L 8.103055297851565 2.2804065 L 8.103055297851565 2.3231564999999996 L 7.862305297851565 2.3231564999999996 L 7.862305297851565 1.7989064999999997 L 7.914805297851565 1.7989064999999997 L 7.914805297851565 2.2804065 M 8.48932067871094 2.1986565 L 8.250820678710939 2.1986565 L 8.205070678710939 2.3231564999999996 L 8.149570678710939 2.3231564999999996 L 8.340820678710939 1.8056564999999996 L 8.40007067871094 1.8056564999999996 L 8.59057067871094 2.3231564999999996 L 8.53507067871094 2.3231564999999996 L 8.48932067871094 2.1986565 M 8.47357067871094 2.1551564999999995 L 8.37007067871094 1.8716564999999996 L 8.26657067871094 2.1551564999999995 L 8.47357067871094 2.1551564999999995 M 9.077303833007814 2.3231564999999996 L 9.024803833007814 2.3231564999999996 L 8.734553833007816 1.8821564999999996 L 8.734553833007816 2.3231564999999996 L 8.682053833007815 2.3231564999999996 L 8.682053833007815 1.7989064999999997 L 8.734553833007816 1.7989064999999997 L 9.024803833007814 2.2391564999999995 L 9.024803833007814 1.7989064999999997 L 9.077303833007814 1.7989064999999997 L 9.077303833007814 2.3231564999999996 M 9.252034423828128 2.2361564999999994 L 9.174034423828127 2.4326564999999998 L 9.138034423828127 2.4326564999999998 L 9.193534423828128 2.2361564999999994 L 9.252034423828128 2.2361564999999994 M 9.90075476074219 1.7989064999999997 L 9.732754760742191 2.1191564999999994 L 9.732754760742191 2.3231564999999996 L 9.68025476074219 2.3231564999999996 L 9.68025476074219 2.1191564999999994 L 9.510754760742191 1.7989064999999997 L 9.57000476074219 1.7989064999999997 L 9.70650476074219 2.0711565 L 9.842254760742192 1.7989064999999997 L 9.90075476074219 1.7989064999999997 M 10.08827416992188 2.2942814999999994 Q 10.029024169921879 2.2601564999999995 9.99489916992188 2.1990315 Q 9.960774169921878 2.1379064999999997 9.960774169921878 2.0606564999999994 Q 9.960774169921878 1.9834064999999996 9.99489916992188 1.9222814999999995 Q 10.029024169921879 1.8611564999999997 10.08827416992188 1.8270314999999997 Q 10.147524169921878 1.7929064999999995 10.220274169921879 1.7929064999999995 Q 10.293774169921878 1.7929064999999995 10.353024169921879 1.8270314999999997 Q 10.41227416992188 1.8611564999999997 10.446024169921879 1.9222814999999995 Q 10.479774169921878 1.9834064999999996 10.479774169921878 2.0606564999999994 Q 10.479774169921878 2.1379064999999997 10.446024169921879 2.1990315 Q 10.41227416992188 2.2601564999999995 10.353024169921879 2.2942814999999994 Q 10.293774169921878 2.3284065 10.220274169921879 2.3284065 Q 10.147524169921878 2.3284065 10.08827416992188 2.2942814999999994 M 10.325274169921878 2.2556564999999997 Q 10.371774169921878 2.2286564999999996 10.398774169921879 2.1780314999999995 Q 10.425774169921878 2.1274064999999998 10.425774169921878 2.0606564999999994 Q 10.425774169921878 1.9939064999999996 10.398774169921879 1.9436564999999997 Q 10.371774169921878 1.8934064999999995 10.325274169921878 1.8664064999999996 Q 10.278774169921878 1.8394064999999995 10.220274169921879 1.8394064999999995 Q 10.161774169921879 1.8394064999999995 10.115274169921879 1.8664064999999996 Q 10.068774169921879 1.8934064999999995 10.04177416992188 1.9436564999999997 Q 10.014774169921878 1.9939064999999996 10.014774169921878 2.0606564999999994 Q 10.014774169921878 2.1274064999999998 10.04177416992188 2.1780314999999995 Q 10.068774169921879 2.2286564999999996 10.115274169921879 2.2556564999999997 Q 10.161774169921879 2.2826564999999994 10.220274169921879 2.2826564999999994 Q 10.278774169921878 2.2826564999999994 10.325274169921878 2.2556564999999997 M 10.633542846679692 1.7989064999999997 L 10.633542846679692 2.1289065 Q 10.633542846679692 2.2069064999999997 10.670667846679692 2.2444064999999997 Q 10.707792846679691 2.2819065 10.772292846679692 2.2819065 Q 10.83679284667969 2.2819065 10.873167846679692 2.2447814999999998 Q 10.909542846679692 2.2076564999999997 10.909542846679692 2.1289065 L 10.909542846679692 1.7989064999999997 L 10.962042846679692 1.7989064999999997 L 10.962042846679692 2.1281565 Q 10.962042846679692 2.2279064999999996 10.909167846679692 2.2781564999999997 Q 10.856292846679692 2.3284065 10.771542846679692 2.3284065 Q 10.686792846679692 2.3284065 10.633917846679692 2.2781564999999997 Q 10.581042846679692 2.2279064999999996 10.581042846679692 2.1281565 L 10.581042846679692 1.7989064999999997 L 10.633542846679692 1.7989064999999997 M 11.365550903320317 2.3231564999999996 L 11.235800903320317 2.1041564999999998 L 11.139050903320317 2.1041564999999998 L 11.139050903320317 2.3231564999999996 L 11.086550903320317 2.3231564999999996 L 11.086550903320317 1.7989064999999997 L 11.244050903320316 1.7989064999999997 Q 11.331800903320318 1.7989064999999997 11.377175903320317 1.8409064999999996 Q 11.422550903320317 1.8829064999999996 11.422550903320317 1.9511564999999997 Q 11.422550903320317 2.0081564999999997 11.389925903320316 2.0482815 Q 11.357300903320317 2.0884064999999996 11.293550903320316 2.1004064999999996 L 11.428550903320316 2.3231564999999996 L 11.365550903320317 2.3231564999999996 M 11.139050903320317 2.0614064999999995 L 11.244800903320316 2.0614064999999995 Q 11.306300903320317 2.0614064999999995 11.337425903320316 2.0314064999999997 Q 11.368550903320317 2.0014065 11.368550903320317 1.9511564999999997 Q 11.368550903320317 1.8994064999999996 11.338550903320316 1.8712814999999996 Q 11.308550903320317 1.8431564999999996 11.244050903320316 1.8431564999999996 L 11.139050903320317 1.8431564999999996 L 11.139050903320317 2.0614064999999995 M 11.757022338867193 1.9222814999999995 Q 11.790772338867193 1.8611564999999997 11.849272338867193 1.8270314999999997 Q 11.907772338867192 1.7929064999999995 11.979772338867193 1.7929064999999995 Q 12.067522338867192 1.7929064999999995 12.130147338867193 1.8345314999999995 Q 12.192772338867192 1.8761564999999996 12.221272338867193 1.9519064999999995 L 12.159772338867192 1.9519064999999995 Q 12.137272338867191 1.8986564999999995 12.091147338867192 1.8686564999999997 Q 12.045022338867192 1.8386564999999997 11.979772338867193 1.8386564999999997 Q 11.922022338867192 1.8386564999999997 11.875897338867192 1.8656564999999996 Q 11.829772338867192 1.8926564999999997 11.803522338867193 1.9432814999999997 Q 11.777272338867192 1.9939064999999996 11.777272338867192 2.0606564999999994 Q 11.777272338867192 2.1274064999999998 11.803522338867193 2.1776564999999994 Q 11.829772338867192 2.2279064999999996 11.875897338867192 2.2549064999999997 Q 11.922022338867192 2.2819065 11.979772338867193 2.2819065 Q 12.045022338867192 2.2819065 12.091147338867192 2.2522814999999996 Q 12.137272338867191 2.2226565 12.159772338867192 2.1701564999999996 L 12.221272338867193 2.1701564999999996 Q 12.192772338867192 2.2451564999999998 12.129772338867193 2.2864064999999996 Q 12.066772338867192 2.3276565 11.979772338867193 2.3276565 Q 11.907772338867192 2.3276565 11.849272338867193 2.2935315 Q 11.790772338867193 2.2594064999999994 11.757022338867193 2.1986565 Q 11.723272338867192 2.1379064999999997 11.723272338867192 2.0606564999999994 Q 11.723272338867192 1.9834064999999996 11.757022338867193 1.9222814999999995 M 12.722269409179692 1.7989064999999997 L 12.722269409179692 2.3231564999999996 L 12.669769409179693 2.3231564999999996 L 12.669769409179693 2.0779064999999997 L 12.385519409179693 2.0779064999999997 L 12.385519409179693 2.3231564999999996 L 12.333019409179693 2.3231564999999996 L 12.333019409179693 1.7989064999999997 L 12.385519409179693 1.7989064999999997 L 12.385519409179693 2.0344065 L 12.669769409179693 2.0344065 L 12.669769409179693 1.7989064999999997 L 12.722269409179692 1.7989064999999997 M 12.953281494140631 2.2942814999999994 Q 12.89403149414063 2.2601564999999995 12.859906494140631 2.1990315 Q 12.82578149414063 2.1379064999999997 12.82578149414063 2.0606564999999994 Q 12.82578149414063 1.9834064999999996 12.859906494140631 1.9222814999999995 Q 12.89403149414063 1.8611564999999997 12.953281494140631 1.8270314999999997 Q 13.01253149414063 1.7929064999999995 13.08528149414063 1.7929064999999995 Q 13.15878149414063 1.7929064999999995 13.21803149414063 1.8270314999999997 Q 13.277281494140631 1.8611564999999997 13.31103149414063 1.9222814999999995 Q 13.34478149414063 1.9834064999999996 13.34478149414063 2.0606564999999994 Q 13.34478149414063 2.1379064999999997 13.31103149414063 2.1990315 Q 13.277281494140631 2.2601564999999995 13.21803149414063 2.2942814999999994 Q 13.15878149414063 2.3284065 13.08528149414063 2.3284065 Q 13.01253149414063 2.3284065 12.953281494140631 2.2942814999999994 M 13.19028149414063 2.2556564999999997 Q 13.23678149414063 2.2286564999999996 13.26378149414063 2.1780314999999995 Q 13.29078149414063 2.1274064999999998 13.29078149414063 2.0606564999999994 Q 13.29078149414063 1.9939064999999996 13.26378149414063 1.9436564999999997 Q 13.23678149414063 1.8934064999999995 13.19028149414063 1.8664064999999996 Q 13.14378149414063 1.8394064999999995 13.08528149414063 1.8394064999999995 Q 13.02678149414063 1.8394064999999995 12.98028149414063 1.8664064999999996 Q 12.93378149414063 1.8934064999999995 12.906781494140631 1.9436564999999997 Q 12.87978149414063 1.9939064999999996 12.87978149414063 2.0606564999999994 Q 12.87978149414063 2.1274064999999998 12.906781494140631 2.1780314999999995 Q 12.93378149414063 2.2286564999999996 12.98028149414063 2.2556564999999997 Q 13.02678149414063 2.2826564999999994 13.08528149414063 2.2826564999999994 Q 13.14378149414063 2.2826564999999994 13.19028149414063 2.2556564999999997 M 13.500800170898444 1.7989064999999997 L 13.500800170898444 2.3231564999999996 L 13.448300170898444 2.3231564999999996 L 13.448300170898444 1.7989064999999997 L 13.500800170898444 1.7989064999999997 M 13.637303100585944 1.9222814999999995 Q 13.671053100585944 1.8611564999999997 13.729553100585944 1.8270314999999997 Q 13.788053100585943 1.7929064999999995 13.860053100585944 1.7929064999999995 Q 13.947803100585944 1.7929064999999995 14.010428100585944 1.8345314999999995 Q 14.073053100585943 1.8761564999999996 14.101553100585944 1.9519064999999995 L 14.040053100585943 1.9519064999999995 Q 14.017553100585943 1.8986564999999995 13.971428100585943 1.8686564999999997 Q 13.925303100585943 1.8386564999999997 13.860053100585944 1.8386564999999997 Q 13.802303100585943 1.8386564999999997 13.756178100585943 1.8656564999999996 Q 13.710053100585943 1.8926564999999997 13.683803100585944 1.9432814999999997 Q 13.657553100585943 1.9939064999999996 13.657553100585943 2.0606564999999994 Q 13.657553100585943 2.1274064999999998 13.683803100585944 2.1776564999999994 Q 13.710053100585943 2.2279064999999996 13.756178100585943 2.2549064999999997 Q 13.802303100585943 2.2819065 13.860053100585944 2.2819065 Q 13.925303100585943 2.2819065 13.971428100585943 2.2522814999999996 Q 14.017553100585943 2.2226565 14.040053100585943 2.1701564999999996 L 14.101553100585944 2.1701564999999996 Q 14.073053100585943 2.2451564999999998 14.010053100585944 2.2864064999999996 Q 13.947053100585943 2.3276565 13.860053100585944 2.3276565 Q 13.788053100585943 2.3276565 13.729553100585944 2.2935315 Q 13.671053100585944 2.2594064999999994 13.637303100585944 2.1986565 Q 13.603553100585943 2.1379064999999997 13.603553100585943 2.0606564999999994 Q 13.603553100585943 1.9834064999999996 13.637303100585944 1.9222814999999995 M 14.265800170898444 1.8416564999999996 L 14.265800170898444 2.0374064999999995 L 14.464550170898443 2.0374064999999995 L 14.464550170898443 2.0809064999999998 L 14.265800170898444 2.0809064999999998 L 14.265800170898444 2.2796564999999998 L 14.487050170898444 2.2796564999999998 L 14.487050170898444 2.3231564999999996 L 14.213300170898444 2.3231564999999996 L 14.213300170898444 1.7981564999999997 L 14.487050170898444 1.7981564999999997 L 14.487050170898444 1.8416564999999996 L 14.265800170898444 1.8416564999999996" fill="#64c6c4" fill-rule="nonzero"></path></g><g clip-path="url(#SvgjsClipPath1001)"><g clip-path="url(#bd9049022-2e6c-48b2-8bfe-eb3b413bf918c0fc9acb-f7e4-4064-9d1d-c097253d311c)"><path d=" M -0.6132100529550732 0.37560556205599505 L -1.5154776518242392 0.37560556205599505 L -1.5154776518242392 -0.5266144237472673 C -1.5154776518242392 -0.649889932003278 -1.6154121965233017 -0.7498244767023409 -1.7386877047793128 -0.7498244767023409 L -2.817599778150041 -0.7498244767023409 C -2.876798764891684 -0.749824476702341 -2.9335731152591933 -0.7263077707851967 -2.975433120223582 -0.6844477658208082 C -3.0172931251879707 -0.6425877608564194 -3.040809831105115 -0.5858134104889106 -3.040809831105115 -0.5266144237472671 L -3.040809831105115 0.42212352744360326 L -3.989595395361889 0.42212352744360326 C -4.048794382103533 0.42212352744360326 -4.105568732471041 0.44564023336074743 -4.14742873743543 0.4875002383251361 C -4.189288742399818 0.5293602432895246 -4.212805448316963 0.5861345936570337 -4.212805448316963 0.6453335803986773 L -4.212805448316963 1.7242932668353086 C -4.212805448316963 1.783492253576952 -4.189288742399818 1.840266603944461 -4.14742873743543 1.8821266089088498 C -4.105568732471041 1.9239866138732384 -4.048794382103533 1.9475033197903826 -3.989595395361889 1.9475033197903826 L -3.0873754095586268 1.9475033197903826 L -3.0873754095586268 2.849770918659548 C -3.0873754095586268 2.973041146283415 -2.987387971161516 3.072980971614622 -2.8641653566035528 3.072980971614622 L -1.7852056701669214 3.072980971614622 C -1.726002811630687 3.0729936042531696 -1.6692211211585133 3.049480955047188 -1.6273583774688976 3.0076182113575713 C -1.5854956337792814 2.9657554676679556 -1.5619829845732989 2.908973777195782 -1.5619956172118479 2.849770918659548 L -1.5619956172118479 1.900985354402774 L -0.6132100529550732 1.900985354402774 C -0.554015444918615 1.9009979839332594 -0.49724097240412757 1.877491869941936 -0.45537959820029705 1.8356394252121249 C -0.4135182239964661 1.793786980482314 -0.3899999986527063 1.7370175238973558 -0.3899999999999997 1.6778229145136037 L -0.3899999999999997 0.5988156150110688 C -0.3899999999999997 0.475540106755058 -0.48993454469906217 0.37560556205599505 -0.6132100529550732 0.37560556205599505" fill="#212245" transform="matrix(1,0,0,1,0,0)" fill-rule="nonzero"></path></g><g clip-path="url(#bd9049022-2e6c-48b2-8bfe-eb3b413bf918c0fc9acb-f7e4-4064-9d1d-c097253d311c)"><path d=" M -2.555537463417804 1.8199003031693077 C -2.523254288404661 1.7924185979204463 -2.4859753650741365 1.7714188921934941 -2.4457417334445957 1.7580509305608094 C -2.571345001297728 1.622115627406642 -2.6959960078327927 1.554885978351061 -2.838454301015724 1.5238898724479568 C -2.6732845753968775 1.4323299467157453 -2.5616795489193405 1.2599230350795845 -2.5616795489193405 1.0626144899759522 C -2.5616795489193405 0.7697941346701282 -2.807267742849006 0.531585965955488 -3.10908696761057 0.531585965955488 C -3.4109538054380377 0.531585965955488 -3.656541999367703 0.7697941346701282 -3.656541999367703 1.0626144899759526 C -3.656541999367703 1.267017381899189 -3.536795138620687 1.4446617307847218 -3.361864734491647 1.5334124856286337 C -3.7091068241250413 1.6214490444839946 -3.9210801935269157 1.8624187710210316 -3.9081294396011947 1.9475033197903822 L -3.087375409558626 1.9475033197903822 L -3.087375409558626 2.849770918659548 C -3.0872981153992276 2.962173469414207 -3.0036348267966977 3.0569755426002754 -2.8921142262888715 3.0710288359125792 C -2.890304929784511 2.918238507428617 -2.8807823166038338 2.747878957626302 -2.8301220144826313 2.6055158905751767 C -2.7753669886937375 2.4516304615754336 -2.680236083018772 2.351547797046516 -2.546443367830257 2.3063153844382995 C -2.6202436199805055 2.2478465395089415 -2.6675233944225676 2.158857719335513 -2.6675233944225676 2.059346411597436 C -2.6675233944225676 1.9639774405929538 -2.6241002783186795 1.8783215350327624 -2.555537463417804 1.8199003031693077 M -0.7686667131296288 1.8779882435714386 C -0.8770340511257353 1.7087237942849012 -1.0211111885493813 1.5938810793259341 -1.178186692964652 1.5475535662019395 C -1.061058550842322 1.4780861030488992 -0.9803067910701797 1.333723287229833 -0.9803067910701797 1.1672203957656917 C -0.9803067910701797 0.9332497899164527 -1.1397153357147158 0.7428927524347149 -1.3355954888412467 0.7428927524347149 C -1.53152325503368 0.7428927524347149 -1.6909317996782165 0.9332497899164525 -1.6909317996782165 1.1672203957656913 C -1.6909317996782165 1.3286763022440733 -1.6150841856941223 1.4692776858567724 -1.5036696114801993 1.5410305761731753 C -1.6742672266120313 1.575645275084937 -1.8183919771015806 1.6652054520492061 -1.9334251443241617 1.8088064588138184 C -1.9700244278841876 1.8548992573248924 -2.0024347860505514 1.904168100712501 -2.0302701203716484 1.956026058587088 C -2.0187953714889324 1.988450556467294 -2.0124628337237827 2.023160481510862 -2.0124628337237827 2.059346411597436 C -2.0124628337237827 2.1618573424874263 -2.0625993921200476 2.253131589824217 -2.1402563026084707 2.3114099824899617 C -2.117999016463508 2.3187994465132213 -2.0962692138570795 2.3276918035095573 -2.0752168545844447 2.3380256863299547 C -1.975943612175885 2.386543400485505 -1.899429415269144 2.464485989369347 -1.8467693643799992 2.5719010660473867 C -1.7725882077025235 2.7233106156201545 -1.7569711220862128 2.912286874190694 -1.7546856949228502 3.0706479313853556 C -1.6442976015332254 3.0554949437165675 -1.5620309072721459 2.9611941790323204 -1.5619956172118465 2.849770918659548 L -1.5619956172118465 1.9009853544027744 L -0.7613343009805069 1.9009853544027744 C -0.7617980127607451 1.8928236030591867 -0.7643205202230412 1.884912102381987 -0.7686667131296283 1.8779882435714386" fill="#64c6c4" transform="matrix(1,0,0,1,0,0)" fill-rule="nonzero"></path></g><g clip-path="url(#bd9049022-2e6c-48b2-8bfe-eb3b413bf918c0fc9acb-f7e4-4064-9d1d-c097253d311c)"><path d=" M -1.8467217513140954 2.5719010660473876 C -1.8993818022032403 2.464485989369348 -1.9758959991099818 2.3864957874196024 -2.075169241518542 2.3379780732640514 C -2.0958809251865147 2.3278841032925337 -2.117497257106652 2.3189328469026966 -2.1402086895425674 2.3114099824899617 C -2.0625517790541448 2.2531315898242177 -2.012415220657879 2.161809729421523 -2.012415220657879 2.0592987985315334 C -2.012415220657879 2.023160481510863 -2.018747758423029 1.9884505564672945 -2.0302225073057456 1.9560260585870883 C -2.074455045529991 1.8310417605907003 -2.196534946506273 1.7409102268355905 -2.3399455010072714 1.7409102268355905 C -2.375887154708332 1.7409034511280022 -2.4115948410991477 1.7466912796289902 -2.445694120378692 1.7580509305608094 C -2.48593260430446 1.7714079332181425 -2.523213533277443 1.7924087687497579 -2.5554898503519006 1.8199003031693082 C -2.6240526652527763 1.8782739219668592 -2.6674757813566643 1.9639298275270505 -2.6674757813566643 2.0592987985315325 C -2.6674757813566643 2.158857719335513 -2.620196006914602 2.2478465395089415 -2.5463957547643536 2.3062677713723962 C -2.6801884699528684 2.351547797046516 -2.7753193756278334 2.4515828485095312 -2.8300744014167276 2.6054682775092743 C -2.8807347035379305 2.747878957626302 -2.890304929784511 2.918238507428617 -2.8921142262888395 3.071028835912583 C -2.8828772915035827 3.0721715494942643 -2.8735927436524227 3.0729333585487186 -2.8641177435376486 3.0729333585487186 L -1.7851580571010173 3.0729333585487186 C -1.7747784087340794 3.0729333585487186 -1.764636825696658 3.071981097230651 -1.754638081856947 3.0706479313853565 C -1.7569711220862128 2.9122392611247907 -1.7725405946366202 2.7233106156201545 -1.8467217513140954 2.5719010660473876" fill="#a4cb6a" transform="matrix(1,0,0,1,0,0)" fill-rule="nonzero"></path></g></g></g><defs><clipPath id="SvgjsClipPath1001"><path d=" M -4.2128054483169635 -0.7498244767023412 h 3.822805448316964 v 3.822805453404682 h -3.822805448316964 Z"></path></clipPath><clipPath id="bd9049022-2e6c-48b2-8bfe-eb3b413bf918c0fc9acb-f7e4-4064-9d1d-c097253d311c"><path d=" M -4.260418514220349 -0.7974851556716303 L -0.34233932103070996 -0.7974851556716303 L -0.34233932103070996 3.120594037518008 L -4.260418514220349 3.120594037518008 Z"></path></clipPath></defs></svg>