<?xml version="1.0" standalone="no"?>
<!DOCTYPE svg PUBLIC "-//W3C//DTD SVG 20010904//EN"
 "http://www.w3.org/TR/2001/REC-SVG-20010904/DTD/svg10.dtd">
<svg version="1.0" xmlns="http://www.w3.org/2000/svg"
 width="790.000000pt" height="790.000000pt" viewBox="0 0 790.000000 790.000000"
 preserveAspectRatio="xMidYMid meet">
<metadata>
Created by potrace 1.14, written by Peter Selinger 2001-2017
</metadata>
<g transform="translate(0.000000,790.000000) scale(0.100000,-0.100000)"
fill="#000000" stroke="none">
<path d="M2822 7696 c-119 -45 -188 -110 -250 -236 l-37 -75 -3 -975 c-1 -536
-4 -975 -6 -977 -1 -2 -430 -3 -952 -4 -1026 -1 -996 1 -1106 -55 -103 -52
-205 -189 -222 -299 -8 -49 -9 -2228 -1 -2270 29 -158 138 -282 294 -337 76
-26 119 -27 1079 -28 l822 0 0 -908 c0 -788 2 -916 16 -967 40 -156 169 -277
333 -315 40 -10 314 -13 1145 -12 1197 0 1155 -2 1268 59 110 60 197 183 217
308 5 35 8 446 8 995 l-2 935 965 0 c916 0 968 1 1019 19 79 27 120 53 176
111 58 60 64 68 87 115 46 92 46 82 46 1240 0 637 -3 1116 -9 1145 -22 118
-112 242 -214 297 -113 60 -74 58 -1063 58 -498 0 -908 2 -910 5 -3 2 -6 418
-6 922 -2 991 1 942 -53 1046 -41 81 -152 175 -245 206 -61 21 -72 21 -1197
20 l-1136 0 -63 -23z"/>
</g>
</svg>
